<svg width="484" height="412" viewBox="0 0 484 412" fill="none" xmlns="http://www.w3.org/2000/svg">
<path d="M275.594 56.0431L297.205 103.893L352.79 88.9046L349.787 135.838L413.12 139.593L385.96 178.465L447.398 200.391L400.216 225.283L450.406 262.043L390.386 269.166L421.686 315.163L357.964 303.432L365.61 351.664L307.889 322.865L290.716 365.989L247.782 324.507L208.406 355.957L186.795 308.107L131.21 323.095L134.213 276.162L70.8802 272.407L98.0397 233.535L36.6022 211.609L83.7836 186.717L33.5943 149.957L93.6145 142.834L62.3142 96.8369L126.036 108.568L118.39 60.336L176.111 89.1346L193.284 46.0111L236.218 87.4933L275.594 56.0431Z" fill="#EE4F38"/>
<path d="M284.359 64.4217L305.21 109.561L358.336 95.6958L355.635 139.864L416.241 143.677L390.399 180.149L449.259 201.06L404.211 224.284L452.363 259.109L394.966 265.55L425.081 308.987L364.073 297.663L371.565 343.1L316.235 315.736L299.964 356.254L258.735 317.016L221.177 346.448L200.326 301.309L147.2 315.174L149.901 271.006L89.2946 267.193L115.137 230.721L56.2765 209.81L101.325 186.586L53.1724 151.761L110.57 145.32L80.4549 101.883L141.463 113.207L133.971 67.7704L189.301 95.1341L205.572 54.6156L246.801 93.8537L284.359 64.4217Z" fill="#EBF642"/>
</svg>
