<svg width="753" height="619" viewBox="0 0 753 619" fill="none" xmlns="http://www.w3.org/2000/svg">
<path d="M416.709 84.2006L451.581 156.092L541.276 133.573L536.43 204.087L638.625 209.728L594.799 268.13L693.937 301.073L617.804 338.472L698.791 393.701L601.94 404.402L652.448 473.51L549.624 455.885L561.962 528.35L468.82 485.082L441.111 549.872L371.83 487.548L308.291 534.799L273.419 462.908L183.724 485.427L188.57 414.913L86.3748 409.272L130.2 350.869L31.0627 317.927L107.196 280.528L26.2089 225.299L123.06 214.598L72.5524 145.49L175.376 163.115L163.038 90.6505L256.18 133.918L283.889 69.1283L353.17 131.452L416.709 84.2006Z" fill="#EE4F38"/>
<path d="M430.851 96.789L464.498 164.607L550.224 143.776L545.866 210.135L643.662 215.864L601.962 270.661L696.941 302.078L624.249 336.971L701.95 389.292L609.331 398.969L657.926 464.23L559.482 447.217L571.571 515.482L482.288 474.37L456.033 535.246L389.504 476.294L328.9 520.513L295.253 452.695L209.527 473.526L213.886 407.168L116.089 401.438L157.789 346.641L62.8097 315.225L135.502 280.332L57.8009 228.01L150.42 218.333L101.825 153.072L200.27 170.085L188.18 101.82L277.463 142.932L303.718 82.056L370.248 141.008L430.851 96.789Z" fill="#EBF642"/>
</svg>
