<svg width="399" height="541" viewBox="0 0 399 541" fill="none" xmlns="http://www.w3.org/2000/svg">
<rect width="399" height="541" rx="24" fill="#F8F2DA"/>
<ellipse cx="59.5" cy="48.0969" rx="27.5" ry="26.3758" fill="#F3C3F5"/>
<ellipse cx="129.5" cy="48.0969" rx="27.5" ry="26.3758" fill="#F3C3F5"/>
<ellipse cx="199.5" cy="48.0969" rx="27.5" ry="26.3758" fill="#F3C3F5"/>
<ellipse cx="269.5" cy="48.0969" rx="27.5" ry="26.3758" fill="#F3C3F5"/>
<ellipse cx="339.5" cy="48.0969" rx="27.5" ry="26.3758" fill="#F3C3F5"/>
<line x1="32" y1="472" x2="366.024" y2="472" stroke="#EE4F38" stroke-width="2"/>
<line x1="32" y1="432" x2="366.024" y2="432" stroke="#EE4F38" stroke-width="2"/>
<line x1="32" y1="392" x2="366.024" y2="392" stroke="#EE4F38" stroke-width="2"/>
<line x1="33" y1="352" x2="367.024" y2="352" stroke="#EE4F38" stroke-width="2"/>
<line x1="33" y1="312" x2="367.024" y2="312" stroke="#EE4F38" stroke-width="2"/>
<line x1="33" y1="272" x2="367.024" y2="272" stroke="#EE4F38" stroke-width="2"/>
<line x1="32" y1="233" x2="366.024" y2="233" stroke="#EE4F38" stroke-width="2"/>
<line x1="32" y1="193" x2="366.024" y2="193" stroke="#EE4F38" stroke-width="2"/>
<line x1="33" y1="152" x2="367.024" y2="152" stroke="#EE4F38" stroke-width="2"/>
</svg>
